/* XPM */
static char *_993723d78384c51f9eb1536a342394dBvCd3pvno47KezwJ[] = {
/* columns rows colors chars-per-pixel */
"64 64 4 1 ",
"  c #000000",
"x c #FFFFFF",
"0 c #FFF000",
"Z c #888888",
/* pixels */
"                                                                ",
"                                                                ",
"                                                                ",
"                                                                ",
"                                                                ",
"                                                                ",
"                                                                ",
"                                                                ",
"                                                                ",
"0                                                              0",
"000                                                          000",
"000000                                                    000000",
"000000000                                              000000000",
"00000000000                                          00000000000",
"0000000000000                                      0000000000000",
"000000000000000                                  000000000000000",
"00000000000000000     Z  Z     ZZ              00000000000000000",
"000000000000000000  ZZ ZZ Z  Z  ZZ ZZ    ZZ ZZ000000000000000000",
"000000000000000000ZZ       Z     ZZ  Z ZZ  Z  000000000000000000",
"000000000000000000                    ZZ      000000000000000000",
"00000000000000000                              00000000000000000",
"0000000000000000                                0000000000000000",
"000000000000000                                  000000000000000",
"0000000000000                                      0000000000000",
"00000000000                                          00000000000",
"000000000                                              000000000",
"000000                                                    000000",
"xxxxx                                                      xxxxx",
"xxxxx                                                      xxxxx",
"xxxxx                                                      xxxxx",
"xxxxx                                                      xxxxx",
"xxxxx                                                      xxxxx",
"xxxxx                                                      xxxxx",
"xxxxxx                                                    xxxxxx",
"xxxxxx                                                    xxxxxx",
"xxxxxx                                                    xxxxxx",
"xxxxxx                                                    xxxxxx",
"xxxxxx                                                    xxxxxx",
"xxxxxxx                                                  xxxxxxx",
"xxxxxxx                                                  xxxxxxx",
"xxxxxxx                                                  xxxxxxx",
"xxxxxxx                                                  xxxxxxx",
"xxxxxxx                                                  xxxxxxx",
"xxxxxxxx                                                xxxxxxxx",
"xxxxxxxx                                                xxxxxxxx",
"xxxxxxxx                                                xxxxxxxx",
"xxxxxxxx                                                xxxxxxxx",
"xxxxxxxx                                                xxxxxxxx",
"xxxxxxxxx                                              xxxxxxxxx",
"xxxxxxxxx                                              xxxxxxxxx",
"xxxxxxxxx                                              xxxxxxxxx",
"xxxxxxxxx                                              xxxxxxxxx",
"xxxxxxxxx                                              xxxxxxxxx",
"xxxxxxxxxx                                            xxxxxxxxxx",
"xxxxxxxxxx                                            xxxxxxxxxx",
"xxxxxxxxxx                                            xxxxxxxxxx",
"xxxxxxxxxx                                            xxxxxxxxxx",
"xxxxxxxxxx                                            xxxxxxxxxx",
"xxxxxxxxxxx                                          xxxxxxxxxxx",
"xxxxxxxxxxx                                          xxxxxxxxxxx",
"xxxxxxxxxxx                                          xxxxxxxxxxx",
"xxxxxxxxxxx                                          xxxxxxxxxxx",
"xxxxxxxxxxx                                          xxxxxxxxxxx",
"XXXXXXXXXXXXXXXXXXXXXXXXXXXXXXXXXXXXXXXXXXXXXXXXXXXXXXXXXXXXXXXX"
};
